<svg width="1200" height="675" viewBox="0 0 1200 675" fill="none" xmlns="http://www.w3.org/2000/svg">
  <rect width="1200" height="675" rx="36" fill="#0B0B0F"/>
  <rect x="62" y="58" width="1076" height="559" rx="30" fill="url(#paint0_linear)" stroke="rgba(255,255,255,0.08)"/>
  <rect x="108" y="108" width="216" height="26" rx="13" fill="#FB923C" fill-opacity="0.92"/>
  <rect x="108" y="164" width="132" height="96" rx="20" fill="#1A1A21" stroke="rgba(251,146,60,0.24)"/>
  <rect x="260" y="164" width="132" height="96" rx="20" fill="#1A1A21" stroke="rgba(251,146,60,0.24)"/>
  <rect x="412" y="164" width="132" height="96" rx="20" fill="#1A1A21" stroke="rgba(251,146,60,0.24)"/>
  <rect x="564" y="164" width="132" height="96" rx="20" fill="#1A1A21" stroke="rgba(251,146,60,0.24)"/>
  <rect x="108" y="294" width="512" height="242" rx="26" fill="rgba(255,255,255,0.03)" stroke="rgba(255,255,255,0.08)"/>
  <rect x="668" y="294" width="424" height="242" rx="26" fill="rgba(255,255,255,0.03)" stroke="rgba(255,255,255,0.08)"/>
  <path d="M146 470L214 420L280 448L348 378L416 402L484 326L548 350" stroke="#FB923C" stroke-width="10" stroke-linecap="round" stroke-linejoin="round"/>
  <circle cx="146" cy="470" r="8" fill="#FB923C"/>
  <circle cx="214" cy="420" r="8" fill="#FB923C"/>
  <circle cx="280" cy="448" r="8" fill="#FB923C"/>
  <circle cx="348" cy="378" r="8" fill="#FB923C"/>
  <circle cx="416" cy="402" r="8" fill="#FB923C"/>
  <circle cx="484" cy="326" r="8" fill="#FB923C"/>
  <circle cx="548" cy="350" r="8" fill="#FB923C"/>
  <rect x="710" y="336" width="252" height="18" rx="9" fill="rgba(255,255,255,0.22)"/>
  <rect x="710" y="372" width="190" height="18" rx="9" fill="rgba(255,255,255,0.14)"/>
  <rect x="710" y="408" width="286" height="18" rx="9" fill="rgba(255,255,255,0.14)"/>
  <rect x="710" y="448" width="220" height="18" rx="9" fill="rgba(255,255,255,0.14)"/>
  <defs>
    <linearGradient id="paint0_linear" x1="62" y1="58" x2="1138" y2="617" gradientUnits="userSpaceOnUse">
      <stop stop-color="#17171D"/>
      <stop offset="1" stop-color="#0F0F13"/>
    </linearGradient>
  </defs>
</svg>
