<svg width="1200" height="675" viewBox="0 0 1200 675" fill="none" xmlns="http://www.w3.org/2000/svg">
  <rect width="1200" height="675" rx="36" fill="#0B0B0F"/>
  <rect x="62" y="58" width="1076" height="559" rx="30" fill="url(#paint0_linear)" stroke="rgba(255,255,255,0.08)"/>
  <rect x="110" y="110" width="336" height="34" rx="17" fill="#FB923C" fill-opacity="0.9"/>
  <rect x="110" y="170" width="458" height="22" rx="11" fill="rgba(255,255,255,0.78)"/>
  <rect x="110" y="205" width="390" height="22" rx="11" fill="rgba(255,255,255,0.52)"/>
  <rect x="110" y="260" width="214" height="56" rx="18" fill="#F97316"/>
  <rect x="110" y="350" width="980" height="236" rx="26" fill="rgba(255,255,255,0.03)" stroke="rgba(251,146,60,0.28)"/>
  <circle cx="838" cy="451" r="116" fill="url(#paint1_radial)"/>
  <rect x="712" y="396" width="252" height="24" rx="12" fill="rgba(255,255,255,0.18)"/>
  <rect x="712" y="435" width="190" height="18" rx="9" fill="rgba(255,255,255,0.12)"/>
  <rect x="712" y="466" width="224" height="18" rx="9" fill="rgba(255,255,255,0.12)"/>
  <defs>
    <linearGradient id="paint0_linear" x1="62" y1="58" x2="1138" y2="617" gradientUnits="userSpaceOnUse">
      <stop stop-color="#17171D"/>
      <stop offset="1" stop-color="#0F0F13"/>
    </linearGradient>
    <radialGradient id="paint1_radial" cx="0" cy="0" r="1" gradientUnits="userSpaceOnUse" gradientTransform="translate(838 451) rotate(90) scale(116)">
      <stop stop-color="#FB923C" stop-opacity="0.7"/>
      <stop offset="1" stop-color="#FB923C" stop-opacity="0"/>
    </radialGradient>
  </defs>
</svg>
