<svg xmlns="http://www.w3.org/2000/svg" viewBox="0 0 128 128" role="img" aria-label="TypeScript">
  <rect width="128" height="128" rx="24" fill="#0f172a"/>
  <rect x="18" y="18" width="92" height="92" rx="22" fill="#3178c6"/>
  <path d="M40 44h48v12H70v36H56V56H40V44z" fill="#fff"/>
  <path d="M82 70c4 0 7 1 9 4l-6 5c-1-1-2-2-4-2-2 0-3 1-3 2 0 2 2 2 6 4 5 2 9 4 9 10 0 7-5 11-12 11-6 0-11-2-14-7l7-5c2 3 4 4 7 4 3 0 4-1 4-3 0-2-1-3-5-5-4-1-11-3-11-11 0-7 6-11 13-11z" fill="#fff" opacity="0.95"/>
</svg>