<svg xmlns="http://www.w3.org/2000/svg" viewBox="0 0 128 128" role="img" aria-label="Git">
  <rect width="128" height="128" rx="24" fill="#1f1020"/>
  <path d="M30 58l22-22 16 16v19l12 12c3-1 7 0 10 3 5 5 5 13 0 18s-13 5-18 0c-4-4-5-10-2-15L58 77v-19L46 44 36 54l6 6v14c4 2 6 6 6 10 0 6-5 11-11 11S26 90 26 84c0-4 2-8 6-10V58z" fill="#f05033"/>
  <circle cx="52" cy="44" r="6" fill="#fff" opacity="0.92"/>
  <circle cx="64" cy="64" r="6" fill="#fff" opacity="0.92"/>
  <circle cx="88" cy="88" r="6" fill="#fff" opacity="0.92"/>
</svg>